<svg width="576" height="174" viewBox="0 0 576 174" fill="none" xmlns="http://www.w3.org/2000/svg">
<path d="M168.688 108.941C157.984 108.941 150.473 103.382 150 93.8602H156.742C157.215 99.5376 160.586 103.382 168.51 103.382C175.311 103.382 177.381 100.425 177.381 96.5806C177.381 91.1989 173.241 90.4301 165.553 88.4785C158.93 86.7043 151.656 84.5753 151.656 76.5323C151.656 69.1989 157.333 65 166.44 65C176.08 65 182.348 69.9086 182.999 78.4247H176.257C175.548 73.3387 172.65 70.5591 166.499 70.5591C161.177 70.5591 158.457 72.5108 158.457 76.1774C158.457 80.9086 162.892 81.914 168.333 83.2742C176.494 85.3441 184.182 87.2957 184.182 96.2258C184.182 103.5 179.273 108.941 168.688 108.941Z" fill="black"/>
<path d="M202.33 109C193.341 109 187.487 102.495 187.487 93.0323C187.487 83.5699 193.341 77.0645 202.271 77.0645C210.018 77.0645 215.163 82.0914 215.873 88.8925H209.9C209.604 85.7581 207.83 81.8548 202.33 81.8548C195.884 81.8548 193.519 87.3548 193.519 93.0323C193.519 98.7097 195.884 104.151 202.33 104.151C207.889 104.151 209.604 100.366 209.9 96.9355H215.873C215.459 103.855 210.077 109 202.33 109Z" fill="black"/>
<path d="M228.839 108.941C222.807 108.941 218.963 105.452 218.963 100.306C218.963 93.5645 224.049 91.5538 231.559 90.1344C236.29 89.2473 239.188 88.6559 239.188 85.6989C239.188 83.5108 237.887 81.6774 233.451 81.6774C228.188 81.6774 226.591 83.3333 226.296 87.3548H220.382C220.678 81.5591 224.463 77.0054 233.688 77.0054C239.898 77.0054 244.865 79.6075 244.865 87.414V101.253C244.865 103.441 245.161 104.565 246.284 104.565C246.462 104.565 246.639 104.565 246.994 104.505V108.054C245.989 108.29 244.983 108.409 244.037 108.409C241.139 108.409 239.602 107.285 239.247 103.855H239.129C237.177 106.989 233.747 108.941 228.839 108.941ZM230.14 104.269C235.344 104.269 239.188 101.608 239.188 96.3441V92.0269C238.242 92.914 235.64 93.5645 232.564 94.2151C227.242 95.2796 224.995 96.7581 224.995 99.8925C224.995 102.731 226.532 104.269 230.14 104.269Z" fill="black"/>
<path d="M257.713 108.113H251.917V65.828H257.713V108.113Z" fill="black"/>
<path d="M272.557 108.941C266.525 108.941 262.681 105.452 262.681 100.306C262.681 93.5645 267.767 91.5538 275.277 90.1344C280.008 89.2473 282.906 88.6559 282.906 85.6989C282.906 83.5108 281.605 81.6774 277.17 81.6774C271.906 81.6774 270.31 83.3333 270.014 87.3548H264.1C264.396 81.5591 268.181 77.0054 277.406 77.0054C283.616 77.0054 288.583 79.6075 288.583 87.414V101.253C288.583 103.441 288.879 104.565 290.003 104.565C290.18 104.565 290.357 104.565 290.712 104.505V108.054C289.707 108.29 288.702 108.409 287.755 108.409C284.858 108.409 283.32 107.285 282.965 103.855H282.847C280.895 106.989 277.465 108.941 272.557 108.941ZM273.858 104.269C279.062 104.269 282.906 101.608 282.906 96.3441V92.0269C281.96 92.914 279.358 93.5645 276.283 94.2151C270.96 95.2796 268.713 96.7581 268.713 99.8925C268.713 102.731 270.251 104.269 273.858 104.269Z" fill="black"/>
<path d="M311.484 77.0645C317.043 77.0645 321.538 80.2581 321.538 87.1774V108.113H315.742V88.7742C315.742 84.7527 313.968 82.0323 309.592 82.0323C304.624 82.0323 301.431 85.0484 301.431 89.6021V108.113H295.636V77.9516H301.431V81.7366H301.549C303.146 79.4301 306.28 77.0645 311.484 77.0645Z" fill="black"/>
<path d="M341.05 109C332.061 109 326.207 102.495 326.207 93.0323C326.207 83.5699 332.061 77.0645 340.991 77.0645C348.738 77.0645 353.883 82.0914 354.593 88.8925H348.62C348.324 85.7581 346.55 81.8548 341.05 81.8548C334.604 81.8548 332.239 87.3548 332.239 93.0323C332.239 98.7097 334.604 104.151 341.05 104.151C346.609 104.151 348.324 100.366 348.62 96.9355H354.593C354.179 103.855 348.797 109 341.05 109Z" fill="black"/>
<path d="M386.897 92.3817C386.897 93.2097 386.897 94.0968 386.838 94.5699H363.656C363.774 99.5968 366.731 104.269 372.704 104.269C378.026 104.269 380.096 100.839 380.628 98.828H386.542C384.945 104.624 380.51 109 372.586 109C363.005 109 357.683 102.199 357.683 92.9731C357.683 83.5108 363.36 77.0054 372.586 77.0054C381.752 77.0054 386.897 83.0376 386.897 92.3817ZM363.656 90.0161H380.865C380.865 85.2849 377.553 81.7366 372.408 81.7366C367.559 81.7366 364.011 85.0484 363.656 90.0161Z" fill="black"/>
<path d="M433.011 108.113H405.098V65.828H411.603V102.495H433.011V108.113Z" fill="black"/>
<path d="M444.889 108.941C438.857 108.941 435.013 105.452 435.013 100.306C435.013 93.5645 440.098 91.5538 447.609 90.1344C452.34 89.2473 455.238 88.6559 455.238 85.6989C455.238 83.5108 453.937 81.6774 449.501 81.6774C444.238 81.6774 442.641 83.3333 442.346 87.3548H436.432C436.728 81.5591 440.512 77.0054 449.738 77.0054C455.947 77.0054 460.915 79.6075 460.915 87.414V101.253C460.915 103.441 461.211 104.565 462.334 104.565C462.512 104.565 462.689 104.565 463.044 104.505V108.054C462.039 108.29 461.033 108.409 460.087 108.409C457.189 108.409 455.652 107.285 455.297 103.855H455.179C453.227 106.989 449.797 108.941 444.889 108.941ZM446.19 104.269C451.394 104.269 455.238 101.608 455.238 96.3441V92.0269C454.292 92.914 451.689 93.5645 448.614 94.2151C443.292 95.2796 441.045 96.7581 441.045 99.8925C441.045 102.731 442.582 104.269 446.19 104.269Z" fill="black"/>
<path d="M483.166 77.0645C490.854 77.0645 496.708 83.0968 496.708 93.0323C496.708 102.968 490.854 108.941 483.166 108.941C478.435 108.941 475.537 106.812 473.881 104.387H473.763V108.113H467.967V65.828H473.763V81.5H473.881C475.537 79.371 478.435 77.0645 483.166 77.0645ZM482.219 104.151C487.897 104.151 490.617 98.9462 490.617 93.0323C490.617 87.1183 487.897 81.914 482.219 81.914C477.015 81.914 473.822 86.172 473.822 93.0323C473.822 99.8333 477.015 104.151 482.219 104.151Z" fill="black"/>
<path d="M513.581 108.941C504.415 108.941 499.861 104.21 499.684 98.0591H505.538C505.775 101.548 507.904 104.269 513.522 104.269C518.608 104.269 519.968 102.022 519.968 99.8333C519.968 96.0484 515.947 95.6344 512.043 94.8065C506.78 93.5645 500.748 92.0269 500.748 85.7581C500.748 80.5538 504.947 77.0645 512.221 77.0645C520.5 77.0645 524.462 81.5 524.876 86.7043H519.022C518.608 84.3978 517.366 81.7366 512.339 81.7366C508.436 81.7366 506.78 83.2742 506.78 85.5215C506.78 88.6559 510.151 88.9516 514.409 89.8978C519.968 91.1989 526 92.7957 526 99.5376C526 105.392 521.505 108.941 513.581 108.941Z" fill="black"/>
<mask id="path-2-inside-1_5_1359" fill="white">
<path fill-rule="evenodd" clip-rule="evenodd" d="M86.5385 123.154C106.718 123.154 123.077 106.795 123.077 86.6156C123.077 66.436 106.718 50.0771 86.5385 50.0771C66.3588 50.0771 50 66.436 50 86.6156C50 106.795 66.3588 123.154 86.5385 123.154ZM113.428 82.824C110.021 86.8081 105.222 89.2893 99.9054 89.2893C89.5695 89.2893 81.1906 79.9129 81.1906 68.3465C81.1906 65.4366 81.7209 62.6652 82.6794 60.147C69.7276 62.1141 59.8027 73.2971 59.8027 86.7982C59.8027 90.7375 60.6476 94.4794 62.1661 97.8526C63.7065 96.4195 65.8713 95.5278 68.269 95.5278C72.9447 95.5278 76.7352 98.9192 76.7352 103.103C76.7352 105.912 75.0261 108.364 72.4875 109.672C76.6268 112.26 81.5192 113.757 86.761 113.757C101.65 113.757 113.719 101.687 113.719 86.7982C113.719 85.448 113.62 84.121 113.428 82.824Z"/>
</mask>
<path fill-rule="evenodd" clip-rule="evenodd" d="M86.5385 123.154C106.718 123.154 123.077 106.795 123.077 86.6156C123.077 66.436 106.718 50.0771 86.5385 50.0771C66.3588 50.0771 50 66.436 50 86.6156C50 106.795 66.3588 123.154 86.5385 123.154ZM113.428 82.824C110.021 86.8081 105.222 89.2893 99.9054 89.2893C89.5695 89.2893 81.1906 79.9129 81.1906 68.3465C81.1906 65.4366 81.7209 62.6652 82.6794 60.147C69.7276 62.1141 59.8027 73.2971 59.8027 86.7982C59.8027 90.7375 60.6476 94.4794 62.1661 97.8526C63.7065 96.4195 65.8713 95.5278 68.269 95.5278C72.9447 95.5278 76.7352 98.9192 76.7352 103.103C76.7352 105.912 75.0261 108.364 72.4875 109.672C76.6268 112.26 81.5192 113.757 86.761 113.757C101.65 113.757 113.719 101.687 113.719 86.7982C113.719 85.448 113.62 84.121 113.428 82.824Z" fill="black"/>
<path d="M113.428 82.824L116.073 82.4332L115.215 76.6217L111.396 81.0864L113.428 82.824ZM82.6794 60.147L85.178 61.098L86.8078 56.8157L82.2779 57.5037L82.6794 60.147ZM62.1661 97.8526L59.7282 98.95L61.2582 102.349L63.9872 99.81L62.1661 97.8526ZM72.4875 109.672L71.263 107.295L67.0858 109.447L71.07 111.939L72.4875 109.672ZM120.403 86.6156C120.403 105.319 105.242 120.481 86.5385 120.481V125.828C108.195 125.828 125.75 108.272 125.75 86.6156H120.403ZM86.5385 52.7507C105.242 52.7507 120.403 67.9125 120.403 86.6156H125.75C125.75 64.9594 108.195 47.4036 86.5385 47.4036V52.7507ZM52.6735 86.6156C52.6735 67.9125 67.8354 52.7507 86.5385 52.7507V47.4036C64.8823 47.4036 47.3265 64.9594 47.3265 86.6156H52.6735ZM86.5385 120.481C67.8354 120.481 52.6735 105.319 52.6735 86.6156H47.3265C47.3265 108.272 64.8823 125.828 86.5385 125.828V120.481ZM99.9054 91.9628C106.09 91.9628 111.604 89.0707 115.46 84.5616L111.396 81.0864C108.438 84.5455 104.354 86.6157 99.9054 86.6157V91.9628ZM78.517 68.3465C78.517 81.0987 87.8181 91.9628 99.9054 91.9628V86.6157C91.3209 86.6157 83.8641 78.727 83.8641 68.3465H78.517ZM80.1807 59.196C79.1069 62.0174 78.517 65.1109 78.517 68.3465H83.8641C83.8641 65.7622 84.335 63.3131 85.178 61.098L80.1807 59.196ZM62.4763 86.7982C62.4763 74.6385 71.4158 64.5619 83.0808 62.7902L82.2779 57.5037C68.0393 59.6663 57.1292 71.9557 57.1292 86.7982H62.4763ZM64.604 96.7551C63.2378 93.7202 62.4763 90.3517 62.4763 86.7982H57.1292C57.1292 91.1232 58.0575 95.2386 59.7282 98.95L64.604 96.7551ZM68.269 92.8542C65.2096 92.8542 62.3903 93.9924 60.345 95.8952L63.9872 99.81C65.0227 98.8467 66.5331 98.2013 68.269 98.2013V92.8542ZM79.4087 103.103C79.4087 97.1708 74.1339 92.8542 68.269 92.8542V98.2013C71.7556 98.2013 74.0616 100.668 74.0616 103.103H79.4087ZM73.7119 112.049C77.0027 110.353 79.4087 107.059 79.4087 103.103H74.0616C74.0616 104.765 73.0495 106.375 71.263 107.295L73.7119 112.049ZM86.761 111.083C82.0349 111.083 77.6317 109.736 73.905 107.405L71.07 111.939C75.6219 114.785 81.0034 116.43 86.761 116.43V111.083ZM111.046 86.7982C111.046 100.21 100.173 111.083 86.761 111.083V116.43C103.126 116.43 116.393 103.163 116.393 86.7982H111.046ZM110.784 83.2148C110.956 84.3828 111.046 85.5792 111.046 86.7982H116.393C116.393 85.3168 116.284 83.8591 116.073 82.4332L110.784 83.2148Z" fill="black" mask="url(#path-2-inside-1_5_1359)"/>
</svg>
